<svg width="286" height="55" viewBox="0 0 286 55" fill="none" xmlns="http://www.w3.org/2000/svg">
<path d="M29 0L35.1717 21.5053L57.5317 20.7295L38.9861 33.2447L46.6336 54.2705L29 40.5L11.3664 54.2705L19.0139 33.2447L0.468307 20.7295L22.8283 21.5053L29 0Z" fill="#D9D9D9"/>
<path d="M86 0L93.0534 20.2918L114.532 20.7295L97.4127 33.7082L103.634 54.2705L86 42L68.3664 54.2705L74.5873 33.7082L57.4683 20.7295L78.9466 20.2918L86 0Z" fill="#D9D9D9"/>
<path d="M143 0L151.817 17.8647L171.532 20.7295L157.266 34.6353L160.634 54.2705L143 45L125.366 54.2705L128.734 34.6353L114.468 20.7295L134.183 17.8647L143 0Z" fill="#D9D9D9"/>
<path d="M200 0L210.58 15.4377L228.532 20.7295L217.119 35.5623L217.634 54.2705L200 48L182.366 54.2705L182.881 35.5623L171.468 20.7295L189.42 15.4377L200 0Z" fill="#D9D9D9"/>
<path d="M257 0L268.462 14.2242L285.532 20.7295L275.546 36.0258L274.634 54.2705L257 49.5L239.366 54.2705L238.454 36.0258L228.468 20.7295L245.538 14.2242L257 0Z" fill="#D9D9D9"/>
</svg>
